<svg width="560" height="420" viewBox="0 0 560 420" fill="none" xmlns="http://www.w3.org/2000/svg">
<path d="M461.159 129.969V334.678H246.405V70.4199H461.159V107.587" fill="white"/>
<path d="M461.159 129.969V334.678H246.405V70.4199H461.159V107.587" stroke="#3A3836" stroke-width="2" stroke-miterlimit="10"/>
<path d="M330.424 108.513H468.497C474.368 108.513 479.113 113.238 479.113 119.083C479.113 124.928 474.368 129.653 468.497 129.653H330.424" fill="#E6E6E6"/>
<path d="M330.424 108.513H468.497C474.368 108.513 479.113 113.238 479.113 119.083C479.113 124.928 474.368 129.653 468.497 129.653H330.424" stroke="#3A3836" stroke-width="2" stroke-miterlimit="10"/>
<path d="M71 392.5C71 386.149 76.1487 381 82.5 381H234.5C240.851 381 246 386.149 246 392.5C246 398.851 240.851 404 234.5 404H82.5C76.1487 404 71 398.851 71 392.5Z" fill="#D9D9D9"/>
<path d="M183.544 162.704H173.394C169.334 162.704 166.056 159.44 166.056 155.397V73.3677C166.056 69.3247 169.334 66.061 173.394 66.061H253.303C257.363 66.061 260.641 69.3247 260.641 73.3677V155.397C260.641 159.44 257.363 162.704 253.303 162.704H213.825" fill="#FFDE83"/>
<path d="M183.544 162.704H173.394C169.334 162.704 166.056 159.44 166.056 155.397V73.3677C166.056 69.3247 169.334 66.061 173.394 66.061H253.303C257.363 66.061 260.641 69.3247 260.641 73.3677V155.397C260.641 159.44 257.363 162.704 253.303 162.704H213.825" stroke="#3A3836" stroke-width="2" stroke-miterlimit="10"/>
<path d="M229.06 85H195.02L178 114.48L195.02 143.96H229.06L246.08 114.48L229.06 85Z" fill="url(#paint0_linear_212_4603)"/>
<path d="M179.155 114.48L195.597 86H228.483L244.925 114.48L228.483 142.96H195.597L179.155 114.48Z" stroke="#3A3836" stroke-width="2"/>
<path d="M71.5932 303.185V383.218C71.5932 394.446 80.8633 403.53 92.3104 403.53C103.733 403.53 113.028 394.446 113.028 383.218L117.017 327.638C117.14 325.446 118.998 323.693 121.249 323.693C123.523 323.693 125.382 325.446 125.48 327.663L134.283 382.294C137 398 143.993 402.775 156.076 402.897C168.355 403.043 175.766 394.5 175.766 380.736L168.037 245.414C201.962 221.497 212.651 199.431 217.225 179.63C221.799 159.828 200.446 154.397 200.446 154.397C201.595 127.119 190.148 133.281 190.148 133.281C179.851 205.227 150.548 197.409 150.548 197.409" fill="white"/>
<path d="M71.5932 303.185V383.218C71.5932 394.446 80.8633 403.53 92.3104 403.53C103.733 403.53 113.028 394.446 113.028 383.218L117.017 327.638C117.14 325.446 118.998 323.693 121.249 323.693C123.523 323.693 125.382 325.446 125.48 327.663L134.283 382.294C137 398 143.993 402.775 156.076 402.897C168.355 403.043 175.766 394.5 175.766 380.736L168.037 245.414C201.962 221.497 212.651 199.431 217.225 179.63C221.799 159.828 200.446 154.397 200.446 154.397C201.595 127.119 190.148 133.281 190.148 133.281C179.851 205.227 150.548 197.409 150.548 197.409" stroke="#3A3836" stroke-width="2" stroke-linecap="round" stroke-linejoin="round"/>
<path d="M150 226L129 229.5L121.5 215.75L114 202V198H150V226Z" fill="white"/>
<path d="M73.3053 207.031L70.9572 205.131C59.7058 195.364 52.5881 181.116 52.5881 165.237C52.5881 135.839 76.9008 111.995 106.888 111.995C136.875 111.995 161.188 135.839 161.188 165.237C161.188 186.475 148.494 204.814 130.149 213.339L128.926 213.948" fill="white"/>
<path d="M73.3053 207.031L70.9572 205.131C59.7058 195.364 52.5881 181.116 52.5881 165.237C52.5881 135.839 76.9008 111.995 106.888 111.995C136.875 111.995 161.188 135.839 161.188 165.237C161.188 186.475 148.494 204.814 130.149 213.339L128.926 213.948" stroke="#3A3836" stroke-width="2" stroke-linecap="round" stroke-linejoin="round"/>
<path d="M158.18 181.554C140.789 179.533 128.339 165.138 128.339 147.554C128.339 137.251 131.079 129.482 138.416 123.198" fill="white"/>
<path d="M158.18 181.554C140.789 179.533 128.339 165.138 128.339 147.554C128.339 137.251 131.079 129.482 138.416 123.198" stroke="#3A3836" stroke-width="2" stroke-linecap="round" stroke-linejoin="round"/>
<path d="M114.471 207.688H60.7331C50.9394 207.688 43 215.594 43 225.346V284.214C43 293.966 50.9394 301.871 60.7331 301.871H114.471C124.264 301.871 132.204 293.966 132.204 284.214V225.346C132.204 215.594 124.264 207.688 114.471 207.688Z" fill="white" stroke="#3A3836" stroke-width="2" stroke-linecap="round" stroke-linejoin="round"/>
<path d="M56.159 301.944C56.159 301.944 57.1863 319.699 71.1526 320.552" stroke="#3A3836" stroke-width="2" stroke-linecap="round" stroke-linejoin="round"/>
<path d="M167.914 249.214C167.914 249.214 157.788 273.521 132.228 267.87" stroke="#3A3836" stroke-width="2" stroke-linecap="round" stroke-linejoin="round"/>
<path d="M168.648 266.458C168.648 266.458 158.302 285.578 132.741 279.927" stroke="#3A3836" stroke-width="2" stroke-linecap="round" stroke-linejoin="round"/>
<path d="M105.885 208.273V227.611C105.885 235.332 99.5991 241.591 91.8454 241.591H43.3423" stroke="#3A3836" stroke-width="2" stroke-linecap="round" stroke-linejoin="round"/>
<path d="M83.3335 261.319C86.0893 261.319 88.3233 259.095 88.3233 256.351C88.3233 253.607 86.0893 251.382 83.3335 251.382C80.5778 251.382 78.3438 253.607 78.3438 256.351C78.3438 259.095 80.5778 261.319 83.3335 261.319Z" fill="#FB8553" stroke="#3A3836" stroke-width="2" stroke-miterlimit="10"/>
<path d="M68.2422 261.319C70.998 261.319 73.232 259.095 73.232 256.351C73.232 253.607 70.998 251.382 68.2422 251.382C65.4865 251.382 63.2525 253.607 63.2525 256.351C63.2525 259.095 65.4865 261.319 68.2422 261.319Z" fill="#FB8553" stroke="#3A3836" stroke-width="2" stroke-miterlimit="10"/>
<path d="M43.0974 251.601H53.6394C55.7919 251.601 57.553 253.915 57.553 256.74C57.553 259.59 55.7919 261.879 53.6394 261.879H43.0974" stroke="#3A3836" stroke-width="2" stroke-linecap="round" stroke-linejoin="round"/>
<path d="M43.0974 271.232H104.319C106.472 271.232 108.233 273.546 108.233 276.371C108.233 279.22 106.472 281.51 104.319 281.51H43.0974" stroke="#3A3836" stroke-width="2" stroke-linecap="round" stroke-linejoin="round"/>
<path d="M96.077 182.797C100.562 182.797 104.198 179.177 104.198 174.711C104.198 170.245 100.562 166.625 96.077 166.625C91.5921 166.625 87.9564 170.245 87.9564 174.711C87.9564 179.177 91.5921 182.797 96.077 182.797Z" stroke="#3A3836" stroke-width="2" stroke-linecap="round" stroke-linejoin="round"/>
<path d="M80.2025 110.583L83.0887 117.037" stroke="#3A3836" stroke-width="2" stroke-linecap="round" stroke-linejoin="round"/>
<path d="M80.0634 110.146C83.9284 108.576 85.7753 104.163 84.1886 100.29C82.6019 96.4163 78.1824 94.5487 74.3174 96.1185C70.4524 97.6883 68.6055 102.101 70.1922 105.974C71.7789 109.848 76.1983 111.715 80.0634 110.146Z" fill="#FB8553" stroke="#3A3836" stroke-width="2" stroke-miterlimit="10"/>
<path d="M320.371 126.901L304.056 99.6957C303.42 98.6485 301.904 98.6485 301.268 99.6957L284.953 126.901C284.317 127.973 285.076 129.336 286.348 129.336H318.952C320.224 129.336 320.982 127.973 320.346 126.901H320.371Z" fill="url(#paint1_linear_212_4603)"/>
<path d="M320.371 126.901L304.056 99.6957C303.42 98.6485 301.904 98.6485 301.268 99.6957L284.953 126.901C284.317 127.973 285.076 129.336 286.348 129.336H318.952C320.224 129.336 320.982 127.973 320.346 126.901H320.371Z" stroke="#3A3836" stroke-width="2" stroke-miterlimit="10"/>
<path d="M303.591 107.806L303.176 117.743C303.176 118.376 302.173 118.376 302.173 117.743L301.757 107.806C301.708 106.564 303.64 106.564 303.591 107.806Z" fill="white"/>
<path d="M302.662 124.271C303.641 124.271 304.423 123.491 304.423 122.517C304.423 121.543 303.641 120.763 302.662 120.763C301.684 120.763 300.901 121.543 300.901 122.517C300.901 123.491 301.684 124.271 302.662 124.271Z" fill="white"/>
<path d="M303.176 147.164C319.224 147.164 332.233 134.21 332.233 118.23C332.233 102.25 319.224 89.2953 303.176 89.2953C287.127 89.2953 274.118 102.25 274.118 118.23C274.118 134.21 287.127 147.164 303.176 147.164Z" stroke="#3A3836" stroke-width="2" stroke-miterlimit="10"/>
<path d="M323.624 97.8931C327.733 102.886 330.179 109.243 330.179 116.209C330.179 132.186 317.167 145.143 301.121 145.143C294.15 145.143 287.742 142.683 282.728 138.616C288.06 145.094 296.156 149.235 305.206 149.235C321.251 149.235 334.264 136.278 334.264 120.3C334.264 111.264 330.106 103.227 323.599 97.9175L323.624 97.8931Z" fill="#3A3836"/>
<path d="M341.357 118.62H360.239" stroke="#3A3836" stroke-width="2" stroke-miterlimit="10"/>
<path d="M404.951 118.62H411.604" stroke="#3A3836" stroke-width="2" stroke-miterlimit="10"/>
<path d="M365.816 118.62H397.491" stroke="#3A3836" stroke-width="2" stroke-miterlimit="10"/>
<path d="M419.627 118.62H456.194" stroke="#3A3836" stroke-width="2" stroke-miterlimit="10"/>
<path d="M350.7 24.8753L357.524 27.0916L350.7 29.308L348.474 36.1032L346.249 29.308L339.424 27.0916L346.249 24.8753L348.474 18.08L350.7 24.8753V24.8753Z" stroke="#3A3836" stroke-width="2" stroke-miterlimit="10"/>
<path d="M510.176 147.019L517 149.236L510.176 151.452L507.95 158.247L505.725 151.452L498.9 149.236L505.725 147.019L507.95 140.224L510.176 147.019Z" stroke="#3A3836" stroke-width="2" stroke-miterlimit="10"/>
<path d="M110.276 63.7952L117.1 66.0116L110.276 68.2279L108.05 75.0231L105.824 68.2279L99 66.0116L105.824 63.7952L108.05 57L110.276 63.7952Z" stroke="#3A3836" stroke-width="2" stroke-miterlimit="10"/>
<path d="M473.632 54.6448C481.374 59.7245 491.771 57.5685 496.899 49.8377C502.014 42.0864 499.908 31.7081 492.166 26.6283C484.423 21.5486 474.027 23.7047 468.898 31.4355C463.783 39.1868 465.889 49.5651 473.632 54.6448Z" fill="#D1DAFA"/>
<path d="M498.873 48.0908C503.472 52.1491 505.977 55.4102 505.122 56.6893C503.666 58.8793 492.767 54.2735 480.78 46.3911C468.793 38.5087 460.227 30.3328 461.683 28.1429C462.394 27.0443 465.466 27.6446 469.913 29.5057" stroke="#3A3836" stroke-width="2" stroke-linecap="round" stroke-linejoin="round"/>
<rect x="264" y="180" width="174" height="131" rx="8" fill="#E6E6E6"/>
<rect x="280" y="214" width="31" height="83" fill="white"/>
<rect x="318" y="234" width="31" height="63" fill="white"/>
<rect x="357" y="246" width="31" height="51" fill="white"/>
<rect x="396" y="230" width="31" height="67" fill="white"/>
<circle cx="266.5" cy="278.5" r="6.5" fill="#A4EEC4" stroke="#3A3836" stroke-width="2"/>
<circle cx="295.5" cy="229.5" r="6.5" fill="#A4EEC4" stroke="#3A3836" stroke-width="2"/>
<circle cx="334.5" cy="256.5" r="6.5" fill="#A4EEC4" stroke="#3A3836" stroke-width="2"/>
<circle cx="372.5" cy="258.5" r="6.5" fill="#F79A8E" stroke="#3A3836" stroke-width="2"/>
<circle cx="412.5" cy="241.5" r="6.5" fill="#A4EEC4" stroke="#3A3836" stroke-width="2"/>
<circle cx="441.5" cy="281.5" r="6.5" fill="#A4EEC4" stroke="#3A3836" stroke-width="2"/>
<path d="M269.5 272L290 234M300.5 233L328 254.5" stroke="#3A3836" stroke-width="2"/>
<path d="M340.5 259.5H366" stroke="#3A3836" stroke-width="2"/>
<path d="M379 257L407 245" stroke="#3A3836" stroke-width="2"/>
<path d="M417.5 246L437.5 276" stroke="#3A3836" stroke-width="2"/>
<defs>
<linearGradient id="paint0_linear_212_4603" x1="178" y1="114.48" x2="246.08" y2="114.48" gradientUnits="userSpaceOnUse">
<stop stop-color="#FF6D37"/>
<stop offset="0.31" stop-color="#FA9139"/>
<stop offset="0.64" stop-color="#F7AC3B"/>
<stop offset="0.87" stop-color="#FAC53C"/>
</linearGradient>
<linearGradient id="paint1_linear_212_4603" x1="284.733" y1="114.114" x2="320.591" y2="114.114" gradientUnits="userSpaceOnUse">
<stop stop-color="#FF6C37"/>
<stop offset="1" stop-color="#FFB400"/>
</linearGradient>
</defs>
</svg>
